<?xml version="1.0" encoding="UTF-8" standalone="no"?>
<svg
   xmlns:dc="http://purl.org/dc/elements/1.1/"
   xmlns:cc="http://creativecommons.org/ns#"
   xmlns:rdf="http://www.w3.org/1999/02/22-rdf-syntax-ns#"
   xmlns:svg="http://www.w3.org/2000/svg"
   xmlns="http://www.w3.org/2000/svg"
   version="1.1"
   id="svg2"
   viewBox="0 0 674.0933 245.93811"
   height="245.93813"
   width="674.09332">
  <defs
     id="defs4" />
  <metadata
     id="metadata7">
    <rdf:RDF>
      <cc:Work
         rdf:about="">
        <dc:format>image/svg+xml</dc:format>
        <dc:type
           rdf:resource="http://purl.org/dc/dcmitype/StillImage" />
        <dc:title></dc:title>
      </cc:Work>
    </rdf:RDF>
  </metadata>
  <g
     transform="translate(-2.8427405,-0.09723033)"
     id="layer1">
    <g
       id="g3945"
       transform="translate(246.45423,305.15812)" />
    <g
       transform="translate(0.1,0)"
       id="g3753">
      <path
         d="M 6.8208335,233.54051 C 7.1653762,218.81416 7.2804542,204.08157 7.3369381,189.35126 7.3964661,170.8994 7.3326736,152.44903 7.1805339,133.99783 7.1255693,123.73584 6.9769034,113.47471 6.8882489,103.21301 6.8391033,97.201006 6.8318214,91.188786 6.8280289,85.176619 6.9787162,61.282847 -1.0225199,77.504497 45.133755,56.238618 c 6.962762,10.454183 12.789666,21.58962 19.568299,32.157085 7.549026,10.707787 15.552571,21.117097 23.974877,31.155237 8.02508,7.06545 14.738179,15.06032 21.123989,23.60259 6.55665,7.8683 13.47168,15.43489 19.74691,23.53608 5.77957,5.94091 10.22806,12.79136 13.88936,20.18108 3.3818,4.89426 4.81435,10.64674 6.79005,16.16992 1.98597,4.37564 1.63546,9.34093 2.94322,13.85546 -3.88418,-14.1731 -0.1274,-0.13339 -36.16696,17.83362 -0.82007,0.40883 0.48498,-1.77056 0.63656,-2.67426 0.3543,-2.11219 0.44468,-4.66116 0.5699,-6.78492 0.28593,-8.10274 0.24704,-16.21253 0.21012,-24.31888 -0.0488,-8.28928 -0.0681,-16.57889 -0.0546,-24.86833 0.009,-7.96127 -0.0218,-15.92237 -0.0594,-23.88355 -0.0302,-6.10812 -0.0402,-12.21631 -0.0456,-18.3245 -0.0235,-5.98109 0.0145,-11.96196 0.0317,-17.94293 0.003,-6.32293 -0.0148,-12.64585 -0.0239,-18.968771 -0.008,-5.780689 -0.009,-11.561384 -0.01,-17.342077 -3.2e-4,-2.854387 -3.2e-4,-5.708775 -3.4e-4,-8.563162 0,0 37.76943,-19.244487 37.76943,-19.244487 l 0,0 c -2e-5,2.854503 -2e-5,5.709006 -3.4e-4,8.56351 -8.5e-4,5.784022 -0.002,11.568045 -0.01,17.352063 -0.009,6.331047 -0.0268,12.662091 -0.0239,18.993149 0.0173,5.970265 0.0552,11.940435 0.0315,17.910815 -0.006,6.12379 -0.0161,12.24758 -0.0465,18.37131 -0.0375,7.97846 -0.0688,15.95684 -0.0498,23.9354 0.0269,8.28733 0.0304,16.57475 0.0442,24.8621 0.0156,8.14921 0.1419,16.30009 -0.009,24.44832 -0.0267,0.81479 -0.32919,10.19778 -0.51768,10.33705 -16.94398,12.51993 -29.62747,36.32199 -39.60429,20.84192 -1.54908,-4.4396 -0.81968,-9.4524 -2.73213,-13.86257 -1.87742,-5.39946 -3.24829,-10.98238 -6.45589,-15.80546 -3.4253,-7.18475 -7.700129,-13.78087 -13.280236,-19.51309 C 87.041507,180.17733 80.350492,172.40454 73.786767,164.52487 67.413519,156.04625 60.288539,148.49145 52.636491,141.16012 44.313463,130.85723 36.457854,120.16127 28.874923,109.30847 22.182821,98.913842 16.357253,87.940211 8.605399,78.261139 21.051853,71.649573 33.817954,65.607497 45.944761,58.42644 c 0.566873,-0.335682 -0.584833,-1.396833 -1.225429,-1.550666 -0.402503,-0.09666 -0.05412,0.826253 -0.06846,1.239951 -0.09022,2.604379 -0.03465,5.209643 -0.05033,7.814837 -0.0038,6.032623 -0.01122,12.065297 -0.06022,18.097758 -0.08873,10.360984 -0.23691,20.7214 -0.292284,31.08267 -0.151307,18.50434 -0.216226,37.00784 -0.156405,55.51282 0.05603,14.55498 0.168507,29.11241 0.516105,43.66331 0,0 -37.7869045,19.25339 -37.7869045,19.25339 z"
         id="path3351"
         style="fill:#000000;fill-opacity:1;fill-rule:nonzero;stroke:none;stroke-width:1px;stroke-linecap:butt;stroke-linejoin:miter;stroke-opacity:1" />
      <path
         d="m 217.56901,47.802805 c 9.14529,4.797501 18.40347,9.454726 28.23288,12.682558 6.32727,1.953738 12.92544,2.279906 19.49396,2.389598 5.69611,0.02452 11.39215,-0.04298 17.08814,-0.07517 6.26642,-0.03027 12.53288,-0.0085 18.79938,-0.01688 6.08801,-0.01038 12.17604,-0.01613 18.26406,-0.01924 5.73352,-0.0023 11.46703,-0.0023 17.20054,-0.0024 2.27422,-0.790747 4.75536,-0.950717 7.04459,-1.654951 1.93525,-0.59534 2.85723,-1.281196 4.60651,-2.308466 -11.36043,6.466254 -22.72086,12.932507 -34.08129,19.398761 5.35171,-4.423132 10.88824,-8.589062 16.54165,-12.627018 0,0 39.35527,-15.414662 39.35527,-15.414662 l 0,0 c -5.79669,3.655609 -11.55959,7.690856 -16.43441,12.510078 -15.45223,9.023292 -31.88283,24.406633 -51.32625,25.012171 -5.73089,-2.46e-4 -11.46178,-5.55e-4 -17.19267,-0.0034 -6.07106,-0.0035 -12.14211,-0.01026 -18.21317,-0.01335 -6.28184,0.0017 -12.56338,0.03417 -18.84506,0.07665 -5.72475,0.03496 -11.45222,0.115433 -17.17515,-0.07358 -6.81357,-0.355282 -13.59434,-1.191684 -20.0343,-3.589592 -9.83263,-3.738776 -19.13394,-8.653563 -28.70877,-12.989632 0,0 35.38409,-23.281479 35.38409,-23.281479 z"
         id="path3353"
         style="fill:#000000;fill-opacity:1;fill-rule:nonzero;stroke:none;stroke-width:1px;stroke-linecap:butt;stroke-linejoin:miter;stroke-opacity:1" />
      <path
         d="m 301.41902,89.561746 c -1.71712,15.486744 -2.24407,31.079194 -2.53924,46.648704 -0.14436,9.53849 -0.10008,19.07818 -0.0531,28.61718 0.0325,5.85463 0.0462,11.70933 0.0536,17.56404 -0.001,5.78201 0.025,11.56408 -0.0201,17.34595 -0.0231,6.43838 -9.7e-4,12.87682 0.0101,19.31521 0.001,0.99724 0.003,1.99448 0.004,2.99172 0,0 -37.749,19.23404 -37.749,19.23404 l 0,0 c 0.001,-0.99872 0.003,-1.99743 0.004,-2.99614 0.0111,-6.4416 0.0335,-12.88326 0.01,-19.32485 -0.0464,-5.77162 -0.0209,-11.54347 -0.0323,-17.31523 -0.004,-5.8733 -0.0118,-11.74668 0.0281,-17.61988 0.0871,-9.67562 0.30244,-19.34926 0.62775,-29.0199 0.50165,-15.54179 1.02815,-31.07855 1.84863,-46.60684 0,0 37.80728,-18.834004 37.80728,-18.834004 z"
         id="path3355"
         style="fill:#000000;fill-opacity:1;fill-rule:nonzero;stroke:none;stroke-width:1px;stroke-linecap:butt;stroke-linejoin:miter;stroke-opacity:1" />
      <path
         d="m 493.72571,81.579331 c -19.92838,-1.309163 -39.76196,-3.718059 -59.65743,-5.486044 -8.79538,0.194874 -18.09751,-3.014642 -26.84664,-0.917655 -3.3375,0.799933 -5.3476,2.192661 -8.28969,3.848118 44.71421,-25.812078 33.03105,-20.968135 22.89542,-12.131845 -6.40555,5.584393 -12.31536,11.72036 -17.57493,18.426341 -4.46409,6.063144 -6.7531,12.972796 -7.62941,20.411994 0.71709,8.10672 10.83469,11.85441 16.83906,15.38988 12.06666,6.75791 24.0779,13.61807 36.05574,20.53879 7.77454,4.91523 16.52587,9.72962 22.02301,17.48797 1.0773,1.52043 1.89299,3.21761 2.83948,4.82642 4.187,8.59677 6.6849,17.43973 5.37175,27.02927 -1.65923,5.93058 -4.64767,11.87872 -10.06199,15.15912 -35.46271,21.48587 -24.42327,17.43327 -43.53862,23.65422 -13.75029,3.45827 -27.81694,5.53248 -41.88246,7.16128 -12.78276,1.3554 -25.61875,1.79661 -38.45893,2.01786 -6.21039,0.0636 -12.42122,0.0633 -18.63185,0.0794 0,0 30.52819,-22.66258 30.52819,-22.66258 l 0,0 c 6.14865,0.0356 12.29746,0.0557 18.44598,-0.02 12.64931,-0.17045 25.30647,-0.65253 37.88788,-2.07611 13.99554,-1.77329 28.05121,-3.8989 41.59731,-7.99649 14.95011,-5.92819 9.79568,-4.26954 -20.85046,14.08268 -1.42084,0.85086 2.75579,-1.84836 4.06631,-2.86754 3.4107,-2.65254 5.42518,-5.59198 6.91613,-9.70376 0.32589,-1.1838 0.81143,-2.33345 0.97767,-3.55144 0.97639,-7.15387 -2.24689,-14.65135 -4.85478,-21.03842 -0.84129,-1.40305 -1.55999,-2.89107 -2.52387,-4.20915 -5.36065,-7.3307 -13.7386,-11.82707 -21.13593,-16.57682 -11.94177,-6.97792 -23.97943,-13.78282 -36.04599,-20.53208 -7.95977,-4.50414 -17.90501,-8.71203 -19.53331,-18.94242 0.6657,-8.0687 2.64315,-15.72482 7.16509,-22.52112 3.76131,-5.330658 7.85367,-9.795758 12.46351,-14.383227 0.0156,-0.01558 9.11065,-8.98445 9.3185,-9.116534 12.0576,-7.662373 24.54187,-14.600004 36.81281,-21.900006 3.81655,-1.509597 4.87573,-2.215414 9.05994,-2.664647 8.82827,-0.947818 17.76031,1.646857 26.54716,1.89516 20.11597,2.110351 40.2381,4.40104 60.4729,4.838832 0,0 -30.76755,22.450573 -30.76755,22.450573 z"
         id="path3367"
         style="fill:#000000;fill-opacity:1;fill-rule:nonzero;stroke:none;stroke-width:1px;stroke-linecap:butt;stroke-linejoin:miter;stroke-opacity:1" />
      <path
         d="m 536.92506,38.748149 c 2.65763,-5.160708 6.65487,-10.067876 11.70479,-13.033692 34.53985,-20.2852339 21.91976,-17.0462337 39.74828,-20.865511 12.32303,-2.8631232 19.2569,-0.4003946 30.3512,4.8798776 8.01891,3.8369524 15.38663,8.5021924 20.0815,16.2677934 4.34936,8.731215 1.37964,14.094681 -3.75108,21.721677 -9.61595,12.440586 -22.80275,21.208343 -35.1256,30.638838 -9.89201,7.549693 -19.72837,15.204403 -29.10775,23.406128 -3.1199,2.86147 -6.69422,5.10293 -10.16546,7.47796 -1.21433,0.83084 -2.10999,1.61595 -2.28756,1.4251 -0.3217,-0.34573 -0.22637,-0.92247 -0.33956,-1.38371 9.18236,-0.36798 18.55421,0.11904 27.78645,0.19367 19.44295,0.041 38.88607,-0.0157 58.32861,-0.15256 9.74806,-0.0576 19.49592,-0.13673 29.24386,-0.21935 0,0 -28.98609,21.35231 -28.98609,21.35231 l 0,0 c -9.56572,-0.0773 -19.13148,-0.14567 -28.69748,-0.17863 -19.40067,-0.0868 -38.80155,-0.0591 -58.20209,0.0563 -5.7193,0.0522 -11.43808,0.16601 -17.15755,0.19286 -3.42542,0.0161 -7.81411,0.37874 -11.17103,-0.70893 -0.74119,-0.24016 -1.36799,-0.75224 -2.05199,-1.12835 -0.60724,-0.91669 -1.45754,-1.70938 -1.82171,-2.75005 -1.13968,-3.25679 10.49406,-8.47277 12.4026,-10.53944 9.43369,-8.40246 19.43221,-16.115522 29.4212,-23.812105 6.38234,-4.845279 12.6971,-9.782528 19.07448,-14.631945 2.14685,-1.632488 4.456,-3.049917 6.51679,-4.792674 3.48367,-2.94605 6.6712,-6.753863 9.70237,-10.160867 4.63071,-5.815868 8.57158,-10.258013 5.21439,-17.685991 -4.15925,-7.198178 -11.33828,-11.141979 -18.61263,-14.606424 -10.48048,-4.629129 -17.71071,-6.020597 -28.94738,-2.829129 -14.54223,4.942632 -6.62858,2.632417 21.90322,-14.435406 1.20993,-0.72378 -2.4347,1.428296 -3.58832,2.241111 -2.2089,1.556336 -4.77336,3.730649 -6.58429,5.764086 -0.79026,0.887353 -1.4261,1.904421 -2.13915,2.856635 0,0 -32.74302,15.440388 -32.74302,15.440388 z"
         id="path3373"
         style="fill:#000000;fill-opacity:1;fill-rule:nonzero;stroke:none;stroke-width:1px;stroke-linecap:butt;stroke-linejoin:miter;stroke-opacity:1" />
    </g>
  </g>
</svg>
