<?xml version="1.0" encoding="iso-8859-1"?>
<!-- Generator: Adobe Illustrator 16.0.0, SVG Export Plug-In . SVG Version: 6.00 Build 0)  -->
<!DOCTYPE svg PUBLIC "-//W3C//DTD SVG 1.1//EN" "http://www.w3.org/Graphics/SVG/1.1/DTD/svg11.dtd">
<svg version="1.1" id="Capa_1" xmlns="http://www.w3.org/2000/svg" xmlns:xlink="http://www.w3.org/1999/xlink" x="0px" y="0px"
	 width="46.132px" height="46.132px" viewBox="0 0 46.132 46.132" style="enable-background:new 0 0 46.132 46.132;"
	 xml:space="preserve">
<g>
	<g>
		<path d="M20.097,1.851c-0.327-1.017-1.264-1.7-2.332-1.7c-1.068,0-2.005,0.683-2.332,1.7L2.063,43.519
			c-0.337,1.053,0.241,2.179,1.293,2.517c1.053,0.338,2.178-0.242,2.516-1.293l0.004-0.011l11.891-5.039l11.891,5.039l0.003,0.011
			c0.272,0.849,1.059,1.389,1.904,1.389c0.203,0,0.409-0.031,0.612-0.096c1.052-0.337,1.63-1.464,1.293-2.517L20.097,1.851z
			 M12.112,25.296l3.091,1.311l-4.064,1.722L12.112,25.296z M10.333,30.842l7.435-3.149l7.434,3.149l0.996,3.105l-8.43,3.571
			l-8.431-3.571L10.333,30.842z M24.393,28.328l-4.063-1.722l3.09-1.311L24.393,28.328z M17.766,7.677l5.041,15.708l-5.04,2.137
			l-5.041-2.137L17.766,7.677z M6.682,42.216l2.04-6.355l6.48,2.746L6.682,42.216z M20.329,38.606l6.48-2.746l2.04,6.355
			L20.329,38.606z"/>
		<path d="M43.452,9.249c-2.393-7.1-10.113-10.929-17.215-8.537c-1.047,0.353-1.608,1.487-1.257,2.534
			c0.354,1.046,1.485,1.61,2.534,1.257c2.427-0.818,5.027-0.641,7.321,0.496c2.294,1.138,4.008,3.101,4.825,5.527
			c0.818,2.427,0.643,5.027-0.495,7.321c-1.139,2.294-3.102,4.008-5.527,4.825c-1.047,0.353-1.609,1.487-1.257,2.534
			c0.281,0.835,1.061,1.362,1.896,1.362c0.211,0,0.427-0.034,0.64-0.105C42.014,24.071,45.844,16.349,43.452,9.249z"/>
		<path d="M31.934,17.619c-0.785,0.265-1.207,1.115-0.942,1.9c0.211,0.626,0.795,1.021,1.421,1.021c0.159,0,0.32-0.025,0.479-0.079
			c1.836-0.619,3.321-1.915,4.182-3.651c0.861-1.736,0.994-3.703,0.375-5.539c-1.276-3.79-5.397-5.833-9.189-4.557
			c-0.785,0.264-1.207,1.115-0.942,1.9c0.264,0.784,1.114,1.208,1.9,0.942c2.221-0.749,4.64,0.45,5.389,2.672
			c0.363,1.077,0.285,2.229-0.22,3.248C33.882,16.496,33.011,17.256,31.934,17.619z"/>
	</g>
</g>
<g>
</g>
<g>
</g>
<g>
</g>
<g>
</g>
<g>
</g>
<g>
</g>
<g>
</g>
<g>
</g>
<g>
</g>
<g>
</g>
<g>
</g>
<g>
</g>
<g>
</g>
<g>
</g>
<g>
</g>
</svg>
